<mxfile host="app.diagrams.net" modified="2021-09-29T10:02:33.715Z" agent="5.0 (Macintosh; Intel Mac OS X 10_15_7) AppleWebKit/537.36 (KHTML, like Gecko) Chrome/93.0.4577.63 Safari/537.36" etag="isBnglFh9VYoAzE9MW-A" version="14.8.0" type="github">
  <diagram id="rvZDE0I0zchVqWHI-ijI" name="第 1 页">
    <mxGraphModel dx="693" dy="1272" grid="1" gridSize="10" guides="1" tooltips="1" connect="1" arrows="1" fold="1" page="1" pageScale="1" pageWidth="827" pageHeight="1169" math="0" shadow="0">
      <root>
        <mxCell id="0" />
        <mxCell id="1" parent="0" />
        <mxCell id="wAjC3GhCp-M5SUt-jnq7-1" value="&lt;pre style=&quot;background-color: #2b2b2b ; color: #a9b7c6 ; font-family: &amp;#34;menlo-regular&amp;#34; , monospace ; font-size: 12.0pt&quot;&gt;&lt;span style=&quot;color: #afbf7e&quot;&gt;servicegateway&lt;/span&gt;&lt;/pre&gt;" style="rounded=0;whiteSpace=wrap;html=1;" vertex="1" parent="1">
          <mxGeometry x="230" y="70" width="140" height="50" as="geometry" />
        </mxCell>
        <mxCell id="wAjC3GhCp-M5SUt-jnq7-2" value="operator" style="text;html=1;strokeColor=none;fillColor=none;align=center;verticalAlign=middle;whiteSpace=wrap;rounded=0;" vertex="1" parent="1">
          <mxGeometry x="240" y="70" width="40" height="20" as="geometry" />
        </mxCell>
        <mxCell id="wAjC3GhCp-M5SUt-jnq7-3" value="Gateway(istio-system)" style="rounded=0;whiteSpace=wrap;html=1;" vertex="1" parent="1">
          <mxGeometry x="160" y="220" width="130" height="40" as="geometry" />
        </mxCell>
        <mxCell id="wAjC3GhCp-M5SUt-jnq7-4" value="Gateway(no-istio-system)" style="rounded=0;whiteSpace=wrap;html=1;" vertex="1" parent="1">
          <mxGeometry x="320" y="220" width="140" height="42.5" as="geometry" />
        </mxCell>
        <mxCell id="wAjC3GhCp-M5SUt-jnq7-10" style="edgeStyle=orthogonalEdgeStyle;rounded=0;orthogonalLoop=1;jettySize=auto;html=1;exitX=0;exitY=1;exitDx=0;exitDy=0;entryX=0.406;entryY=0.008;entryDx=0;entryDy=0;entryPerimeter=0;curved=1;" edge="1" parent="1" source="wAjC3GhCp-M5SUt-jnq7-5" target="wAjC3GhCp-M5SUt-jnq7-3">
          <mxGeometry relative="1" as="geometry" />
        </mxCell>
        <mxCell id="wAjC3GhCp-M5SUt-jnq7-11" style="edgeStyle=orthogonalEdgeStyle;curved=1;rounded=0;orthogonalLoop=1;jettySize=auto;html=1;exitX=1;exitY=1;exitDx=0;exitDy=0;" edge="1" parent="1" source="wAjC3GhCp-M5SUt-jnq7-5" target="wAjC3GhCp-M5SUt-jnq7-4">
          <mxGeometry relative="1" as="geometry" />
        </mxCell>
        <mxCell id="wAjC3GhCp-M5SUt-jnq7-5" value="Reconcile: sync host" style="ellipse;whiteSpace=wrap;html=1;" vertex="1" parent="1">
          <mxGeometry x="257.5" y="120" width="85" height="60" as="geometry" />
        </mxCell>
        <mxCell id="wAjC3GhCp-M5SUt-jnq7-8" value="v2" style="text;html=1;strokeColor=none;fillColor=none;align=center;verticalAlign=middle;whiteSpace=wrap;rounded=0;" vertex="1" parent="1">
          <mxGeometry x="150" y="242.5" width="40" height="20" as="geometry" />
        </mxCell>
        <mxCell id="wAjC3GhCp-M5SUt-jnq7-9" value="v0 v1" style="text;html=1;strokeColor=none;fillColor=none;align=center;verticalAlign=middle;whiteSpace=wrap;rounded=0;" vertex="1" parent="1">
          <mxGeometry x="330" y="242.5" width="40" height="20" as="geometry" />
        </mxCell>
        <mxCell id="wAjC3GhCp-M5SUt-jnq7-12" value="project namespace" style="text;html=1;strokeColor=none;fillColor=none;align=center;verticalAlign=middle;whiteSpace=wrap;rounded=0;" vertex="1" parent="1">
          <mxGeometry x="280" y="175" width="40" height="20" as="geometry" />
        </mxCell>
        <mxCell id="wAjC3GhCp-M5SUt-jnq7-15" value="create or update" style="text;html=1;strokeColor=none;fillColor=none;align=center;verticalAlign=middle;whiteSpace=wrap;rounded=0;" vertex="1" parent="1">
          <mxGeometry x="180" y="170" width="90" height="30" as="geometry" />
        </mxCell>
        <mxCell id="wAjC3GhCp-M5SUt-jnq7-16" value="create or update" style="text;html=1;strokeColor=none;fillColor=none;align=center;verticalAlign=middle;whiteSpace=wrap;rounded=0;" vertex="1" parent="1">
          <mxGeometry x="342.5" y="175" width="90" height="30" as="geometry" />
        </mxCell>
        <mxCell id="wAjC3GhCp-M5SUt-jnq7-20" value="&lt;pre style=&quot;background-color: #2b2b2b ; color: #a9b7c6 ; font-family: &amp;#34;menlo-regular&amp;#34; , monospace ; font-size: 12.0pt&quot;&gt;&lt;span style=&quot;color: #afbf7e&quot;&gt;envoyfiltertemplatesync&lt;/span&gt;&lt;/pre&gt;" style="rounded=0;whiteSpace=wrap;html=1;" vertex="1" parent="1">
          <mxGeometry x="170" y="310" width="240" height="60" as="geometry" />
        </mxCell>
        <mxCell id="wAjC3GhCp-M5SUt-jnq7-21" value="controller" style="text;html=1;strokeColor=none;fillColor=none;align=center;verticalAlign=middle;whiteSpace=wrap;rounded=0;" vertex="1" parent="1">
          <mxGeometry x="190" y="310" width="40" height="20" as="geometry" />
        </mxCell>
        <mxCell id="wAjC3GhCp-M5SUt-jnq7-22" value="&lt;pre style=&quot;background-color: #2b2b2b ; color: #a9b7c6 ; font-family: &amp;#34;menlo-regular&amp;#34; , monospace ; font-size: 12.0pt&quot;&gt;&lt;span style=&quot;color: #e6b163&quot;&gt;EnvoyFilterBinding&lt;/span&gt;&lt;/pre&gt;" style="rounded=0;whiteSpace=wrap;html=1;" vertex="1" parent="1">
          <mxGeometry x="130" y="525" width="180" height="60" as="geometry" />
        </mxCell>
        <mxCell id="wAjC3GhCp-M5SUt-jnq7-23" value="&lt;pre style=&quot;background-color: #2b2b2b ; color: #a9b7c6 ; font-family: &amp;#34;menlo-regular&amp;#34; , monospace ; font-size: 12.0pt&quot;&gt;&lt;span style=&quot;color: #e6b163&quot;&gt;EnvoyFilterBinding&lt;/span&gt;&lt;/pre&gt;" style="rounded=0;whiteSpace=wrap;html=1;" vertex="1" parent="1">
          <mxGeometry x="330" y="525" width="180" height="60" as="geometry" />
        </mxCell>
        <mxCell id="wAjC3GhCp-M5SUt-jnq7-27" value="sync label-hash" style="text;html=1;strokeColor=none;fillColor=none;align=center;verticalAlign=middle;whiteSpace=wrap;rounded=0;" vertex="1" parent="1">
          <mxGeometry x="140" y="480" width="90" height="20" as="geometry" />
        </mxCell>
        <mxCell id="wAjC3GhCp-M5SUt-jnq7-29" value="sync label-hash" style="text;html=1;strokeColor=none;fillColor=none;align=center;verticalAlign=middle;whiteSpace=wrap;rounded=0;" vertex="1" parent="1">
          <mxGeometry x="372.5" y="470" width="90" height="20" as="geometry" />
        </mxCell>
        <mxCell id="wAjC3GhCp-M5SUt-jnq7-30" value="template.Hash" style="text;html=1;strokeColor=none;fillColor=none;align=center;verticalAlign=middle;whiteSpace=wrap;rounded=0;" vertex="1" parent="1">
          <mxGeometry x="270" y="450" width="40" height="20" as="geometry" />
        </mxCell>
        <mxCell id="wAjC3GhCp-M5SUt-jnq7-37" style="edgeStyle=orthogonalEdgeStyle;curved=1;rounded=0;orthogonalLoop=1;jettySize=auto;html=1;exitX=0;exitY=1;exitDx=0;exitDy=0;" edge="1" parent="1" source="wAjC3GhCp-M5SUt-jnq7-34" target="wAjC3GhCp-M5SUt-jnq7-22">
          <mxGeometry relative="1" as="geometry" />
        </mxCell>
        <mxCell id="wAjC3GhCp-M5SUt-jnq7-38" style="edgeStyle=orthogonalEdgeStyle;curved=1;rounded=0;orthogonalLoop=1;jettySize=auto;html=1;exitX=1;exitY=1;exitDx=0;exitDy=0;entryX=0.5;entryY=0;entryDx=0;entryDy=0;" edge="1" parent="1" source="wAjC3GhCp-M5SUt-jnq7-34" target="wAjC3GhCp-M5SUt-jnq7-23">
          <mxGeometry relative="1" as="geometry" />
        </mxCell>
        <mxCell id="wAjC3GhCp-M5SUt-jnq7-34" value="Reconcile" style="ellipse;whiteSpace=wrap;html=1;" vertex="1" parent="1">
          <mxGeometry x="240" y="370" width="120" height="80" as="geometry" />
        </mxCell>
        <mxCell id="wAjC3GhCp-M5SUt-jnq7-39" value="&lt;pre style=&quot;background-color: #2b2b2b ; color: #a9b7c6 ; font-family: &amp;#34;menlo-regular&amp;#34; , monospace ; font-size: 12.0pt&quot;&gt;&lt;span style=&quot;color: #6fafbd&quot;&gt;EnvoyFilterBinding&lt;/span&gt;&lt;/pre&gt;" style="rounded=0;whiteSpace=wrap;html=1;" vertex="1" parent="1">
          <mxGeometry x="510" y="50" width="180" height="70" as="geometry" />
        </mxCell>
        <mxCell id="wAjC3GhCp-M5SUt-jnq7-43" style="edgeStyle=orthogonalEdgeStyle;curved=1;rounded=0;orthogonalLoop=1;jettySize=auto;html=1;exitX=0.5;exitY=1;exitDx=0;exitDy=0;" edge="1" parent="1" source="wAjC3GhCp-M5SUt-jnq7-40" target="wAjC3GhCp-M5SUt-jnq7-42">
          <mxGeometry relative="1" as="geometry" />
        </mxCell>
        <mxCell id="wAjC3GhCp-M5SUt-jnq7-40" value="Reconcile" style="ellipse;whiteSpace=wrap;html=1;" vertex="1" parent="1">
          <mxGeometry x="540" y="120" width="120" height="80" as="geometry" />
        </mxCell>
        <mxCell id="wAjC3GhCp-M5SUt-jnq7-41" value="controller" style="text;html=1;strokeColor=none;fillColor=none;align=center;verticalAlign=middle;whiteSpace=wrap;rounded=0;" vertex="1" parent="1">
          <mxGeometry x="590" y="50" width="40" height="20" as="geometry" />
        </mxCell>
        <mxCell id="wAjC3GhCp-M5SUt-jnq7-46" style="edgeStyle=orthogonalEdgeStyle;curved=1;rounded=0;orthogonalLoop=1;jettySize=auto;html=1;exitX=0.5;exitY=1;exitDx=0;exitDy=0;" edge="1" parent="1" source="wAjC3GhCp-M5SUt-jnq7-42" target="wAjC3GhCp-M5SUt-jnq7-45">
          <mxGeometry relative="1" as="geometry" />
        </mxCell>
        <mxCell id="wAjC3GhCp-M5SUt-jnq7-42" value="&lt;pre style=&quot;background-color: #2b2b2b ; color: #a9b7c6 ; font-family: &amp;#34;menlo-regular&amp;#34; , monospace ; font-size: 12.0pt&quot;&gt;&lt;span style=&quot;color: #6fafbd&quot;&gt;EnvoyFilterTemplateSync&lt;/span&gt;&lt;/pre&gt;" style="rounded=0;whiteSpace=wrap;html=1;" vertex="1" parent="1">
          <mxGeometry x="490" y="276.5" width="220" height="43.5" as="geometry" />
        </mxCell>
        <mxCell id="wAjC3GhCp-M5SUt-jnq7-44" value="get" style="text;html=1;strokeColor=none;fillColor=none;align=center;verticalAlign=middle;whiteSpace=wrap;rounded=0;" vertex="1" parent="1">
          <mxGeometry x="600" y="222.5" width="40" height="20" as="geometry" />
        </mxCell>
        <mxCell id="wAjC3GhCp-M5SUt-jnq7-50" style="edgeStyle=orthogonalEdgeStyle;curved=1;rounded=0;orthogonalLoop=1;jettySize=auto;html=1;exitX=0.5;exitY=1;exitDx=0;exitDy=0;" edge="1" parent="1" source="wAjC3GhCp-M5SUt-jnq7-45" target="wAjC3GhCp-M5SUt-jnq7-49">
          <mxGeometry relative="1" as="geometry" />
        </mxCell>
        <mxCell id="wAjC3GhCp-M5SUt-jnq7-45" value="&lt;pre style=&quot;background-color: rgb(43 , 43 , 43) ; color: rgb(169 , 183 , 198) ; font-family: , monospace ; font-size: 12pt&quot;&gt;&lt;span style=&quot;color: rgb(230 , 177 , 99)&quot;&gt;EnvoyFilterBinding&lt;/span&gt;&lt;/pre&gt;" style="rounded=0;whiteSpace=wrap;html=1;" vertex="1" parent="1">
          <mxGeometry x="505" y="390" width="190" height="70" as="geometry" />
        </mxCell>
        <mxCell id="wAjC3GhCp-M5SUt-jnq7-47" value="sync label-hash with template.Hash" style="text;html=1;strokeColor=none;fillColor=none;align=center;verticalAlign=middle;whiteSpace=wrap;rounded=0;" vertex="1" parent="1">
          <mxGeometry x="515" y="340" width="170" height="10" as="geometry" />
        </mxCell>
        <mxCell id="wAjC3GhCp-M5SUt-jnq7-49" value="&lt;pre style=&quot;background-color: #2b2b2b ; color: #a9b7c6 ; font-family: &amp;#34;menlo-regular&amp;#34; , monospace ; font-size: 12.0pt&quot;&gt;&lt;span style=&quot;color: #b09d79&quot;&gt;EnvoyFilter&lt;/span&gt;&lt;/pre&gt;" style="rounded=0;whiteSpace=wrap;html=1;" vertex="1" parent="1">
          <mxGeometry x="540" y="525" width="120" height="60" as="geometry" />
        </mxCell>
        <mxCell id="wAjC3GhCp-M5SUt-jnq7-51" value="create or update" style="text;html=1;strokeColor=none;fillColor=none;align=center;verticalAlign=middle;whiteSpace=wrap;rounded=0;" vertex="1" parent="1">
          <mxGeometry x="590" y="470" width="100" height="20" as="geometry" />
        </mxCell>
      </root>
    </mxGraphModel>
  </diagram>
</mxfile>
